<svg width="32" height="26" viewBox="0 0 32 26" fill="none" xmlns="http://www.w3.org/2000/svg">
<g clip-path="url(#clip0_1229_2155)">
<path d="M31.9304 6.49574L28.2087 18.2175C27.9304 19.0523 27.2 19.6088 26.3304 19.6088H11.9652C11.1304 19.6088 10.3304 19.087 10.0522 18.3218L4.55652 3.60878H1.3913C0.626087 3.60878 0 2.98269 0 2.21748C0 1.45226 0.626087 0.826172 1.3913 0.826172H5.53043C6.12174 0.826172 6.64348 1.20878 6.85217 1.7653L12.5217 16.8262H25.7391L28.6957 7.43487H12.313C11.5478 7.43487 10.9217 6.80878 10.9217 6.04356C10.9217 5.27835 11.5478 4.65226 12.313 4.65226H30.6087C31.0609 4.65226 31.4783 4.89574 31.7217 5.24356C32 5.59139 32.0696 6.07835 31.9304 6.49574ZM12.6609 21.4523C12.0696 21.4523 11.4783 21.6957 11.0609 22.1131C10.6435 22.5305 10.4 23.1218 10.4 23.7131C10.4 24.3044 10.6435 24.8957 11.0609 25.3131C11.4783 25.7305 12.0696 25.974 12.6609 25.974C13.2522 25.974 13.8435 25.7305 14.2609 25.3131C14.6783 24.8957 14.9217 24.3044 14.9217 23.7131C14.9217 23.1218 14.6783 22.5305 14.2609 22.1131C13.8435 21.6957 13.2522 21.4523 12.6609 21.4523ZM25.1478 21.4523C24.5565 21.4523 23.9652 21.6957 23.5478 22.1131C23.1304 22.5305 22.887 23.1218 22.887 23.7131C22.887 24.3044 23.1304 24.8957 23.5478 25.3131C23.9652 25.7305 24.5565 25.974 25.1478 25.974C25.7391 25.974 26.3304 25.7305 26.7478 25.3131C27.1652 24.8957 27.4087 24.3044 27.4087 23.7131C27.4087 23.1218 27.1652 22.5305 26.7478 22.1131C26.3304 21.6957 25.7391 21.4523 25.1478 21.4523Z" fill="#1A1A1A"/>
</g>
<defs>
<clipPath id="clip0_1229_2155">
<rect width="32" height="26" fill="white"/>
</clipPath>
</defs>
</svg>
