<svg width="70" height="48" viewBox="0 0 70 48" fill="none" xmlns="http://www.w3.org/2000/svg">
<path d="M62.0201 1.43967L60.0755 2.8639H57.6516H55.2414L53.6802 1.90529C52.8311 1.3849 52.0505 0.97406 51.9684 1.00145C51.8725 1.04253 51.626 1.09731 51.4206 1.1384C51.0782 1.22056 51.0372 1.28904 51.0372 1.76834C51.0372 2.24765 51.1467 2.43937 52.0368 3.43907L53.0365 4.57571L52.8996 5.15088C52.8037 5.6165 52.7216 5.73975 52.4888 5.73975C52.3244 5.73975 47.1479 6.28753 40.9717 6.94486L29.7422 8.16367L17.9376 7.82131L6.1329 7.49264L4.873 8.01303C3.66789 8.50603 3.58572 8.57451 2.73666 9.62898C2.24366 10.2452 1.79174 10.8615 1.72327 11.0121C1.42199 11.7516 0.737265 16.3941 0.641404 18.4756C0.572931 19.7218 0.394903 21.5706 0.230569 22.584C-0.00223761 24.1178 -0.0433211 24.7477 0.0388459 26.213C0.0936239 27.2538 0.189485 28.0344 0.285347 28.0892C0.586626 28.2946 0.860516 28.185 1.29874 27.6509C1.66849 27.2127 1.80544 26.8156 2.1341 25.3777L2.53124 23.6522L2.20258 21.2419C1.91499 19.0645 1.8876 18.5852 2.06563 18.7632C2.09302 18.7906 2.44908 20.475 2.85991 22.5155L3.59942 26.213L3.09272 29.3901L2.58602 32.581L3.09272 39.7021L3.59942 46.8232L3.99656 47.2341L4.3937 47.6449H6.42048C8.3651 47.6449 9.67977 47.4806 9.67977 47.2204C9.67977 47.1519 8.94027 45.9057 8.03643 44.4404C7.1326 42.9888 6.3657 41.6878 6.31093 41.5782C6.26984 41.455 6.6259 39.7158 7.10521 37.7164L7.96796 34.0737L8.43357 34.1147L8.89919 34.1558L10.5151 39.0037C11.912 43.1942 12.2269 44.0022 12.8569 45.0156C13.2677 45.6729 13.8155 46.3439 14.1168 46.563L14.6509 46.9602H16.8009C18.9099 46.9602 18.9509 46.9602 19.2659 46.6178C19.4439 46.4261 19.5398 46.2344 19.4987 46.1933C19.4439 46.1385 18.5949 45.6044 17.5952 44.9882L15.7875 43.8789L14.5002 39.9212L13.213 35.9635L13.5279 35.2925C13.8566 34.5941 13.9388 34.5667 14.9111 34.7173C15.3904 34.7995 15.4178 34.8406 15.8423 35.9498C16.349 37.2371 16.2394 37.2645 17.1296 35.7718C17.4172 35.2925 17.6637 34.909 17.6911 34.909C17.7321 34.909 18.0334 35.402 18.3895 36.0183L19.0331 37.1138L19.5946 35.8676L20.1561 34.6214L21.8542 33.3342C22.7854 32.622 23.6071 32.0332 23.6755 32.0332C23.7577 32.0332 26.4008 31.7867 29.5779 31.4854C32.7413 31.1841 35.3706 30.9787 35.4254 31.0335C35.4665 31.102 35.9184 31.636 36.4114 32.2386L37.3016 33.3342L38.1506 39.2639C38.9449 44.7828 39.0271 45.2621 39.4379 46.0837L39.8624 46.9602H41.8755C43.8612 46.9602 43.8886 46.9602 44.1077 46.6178C44.3269 46.2892 44.3132 46.2481 43.108 44.591L41.9029 42.9066L41.8071 40.9209C41.766 39.839 41.6838 38.3737 41.6427 37.6753L41.5606 36.388L42.2316 36.7304L42.9026 37.0728L43.8886 40.1403C44.4227 41.8111 45.1485 44.057 45.4772 45.0977C46.2852 47.6723 46.2441 47.6449 48.6817 47.6449H50.4894L50.64 47.2752C50.7633 46.9465 50.7222 46.8506 50.2292 46.3576C49.8731 45.9879 49.1336 44.7006 48.0107 42.5232L46.3399 39.2502L46.7097 35.8129C47.1342 31.8278 46.8192 32.444 49.3664 30.5953L50.8728 29.4997L53.6802 24.3095L56.4739 19.133L59.6784 17.654L62.8829 16.1613L65.7998 15.8326C67.9909 15.5861 68.7715 15.4491 68.9632 15.2711C69.1002 15.1479 69.4152 14.5042 69.648 13.8332C70.0588 12.7102 70.0725 12.6007 69.8808 12.1625C69.7712 11.8886 68.0731 10.0124 65.8957 7.73914L62.116 3.79513L63.7593 2.75434L65.4027 1.71357L65.4985 1.00145C65.5396 0.604309 65.5396 0.220863 65.4848 0.138699C65.4438 0.05653 65.074 -0.0119438 64.6906 0.00175095C64.0058 0.00175095 63.8963 0.0702248 62.0201 1.43967Z" fill="#FAB414"/>
</svg>
