<svg width="40" height="49" viewBox="0 0 40 49" fill="none" xmlns="http://www.w3.org/2000/svg">
<path d="M33.2238 0.388107C33.3497 0.587402 33.4441 0.839146 33.4231 0.923061C33.4021 1.01746 33.0979 1.19578 32.6889 1.34263C30.8113 1.99297 29.1015 3.50343 27.8952 5.58032C27.2554 6.67121 26.6785 8.0558 25.8813 10.4159C25.0526 12.8389 24.717 13.4368 23.8568 14.0347C23.0702 14.5697 22.4932 14.7165 21.0877 14.7165C19.9234 14.7165 19.8814 14.706 19.5038 14.4123C18.2346 13.4053 15.9374 12.6186 12.9375 12.1466C12.5599 12.0837 12.4864 12.0208 12.1508 11.4438C11.5004 10.311 10.1054 8.95788 8.13336 7.54182C6.88513 6.65023 6.22431 6.61876 5.8362 7.41595C5.62641 7.8565 5.60544 7.86699 5.29076 7.78307C4.71384 7.61525 3.91666 7.66769 3.64393 7.88797C3.43415 8.0558 3.39219 8.18167 3.39219 8.71663V9.33549L3.05653 9.18864C2.61598 9.01032 1.97613 9.01032 1.70341 9.20962C1.10552 9.61871 1.16845 10.4369 1.82928 11.1082L2.19641 11.4648H1.74537C1.18943 11.4648 0.61252 11.748 0.423713 12.0942C0.255883 12.4194 0.318819 13.2165 0.539095 13.4263C0.685946 13.5732 0.664967 13.6151 0.371266 13.8144C0.109033 13.9927 0.0251185 14.1291 0.00413983 14.4333C-0.0378174 14.9053 0.245394 15.5347 0.570563 15.6815L0.811817 15.7969L0.539095 16.206C0.350287 16.4787 0.266373 16.7619 0.255883 17.0766C0.245394 17.7479 0.434202 17.9053 1.32579 17.9053C1.82928 17.9158 2.12298 17.9682 2.33277 18.1046C3.10898 18.6185 5.52152 23.1604 6.01452 25.0485C6.11941 25.4576 6.17186 26.1499 6.17186 27.1044C6.17186 28.6778 6.3292 29.7057 6.76975 31.0274C7.86064 34.3315 9.21376 36.1777 11.4795 37.4783C12.4969 38.0552 14.364 38.8 15.5913 39.1147C16.7136 39.3979 16.7661 39.4189 16.7661 39.6496C16.7661 40.1426 18.0248 43.2684 18.7276 44.5167C18.7486 44.5481 18.5807 44.632 18.35 44.695C18.1087 44.7684 17.7835 44.9887 17.5633 45.2404C17.2486 45.5971 17.1856 45.7334 17.1856 46.1425C17.1856 46.5621 17.2066 46.6145 17.3744 46.5516C17.7835 46.3942 18.7171 46.1845 19.0213 46.1845C19.294 46.1845 19.3569 46.2474 19.5352 46.6775C19.6506 46.9502 19.9863 47.4222 20.28 47.7264C20.794 48.2613 20.8359 48.2823 21.3709 48.2823H21.9373L21.6646 48.0725C21.3709 47.8313 21.2345 47.4012 21.3289 46.9921C21.3919 46.7404 21.4128 46.7299 21.7275 46.8663C22.1051 47.0236 23.4792 47.2334 24.1191 47.2334H24.5282V46.7194V46.2159L23.6156 46.1425C22.5981 46.0586 21.245 45.8068 20.9093 45.639C20.1331 45.2404 19.3464 43.2789 18.9269 40.7195L18.7905 39.9119L19.5562 39.8489C20.3219 39.7755 21.8849 39.5237 22.231 39.4189C22.3883 39.3664 22.4303 39.4398 22.4827 39.8594C22.5981 40.73 22.8499 41.6741 23.1541 42.3559L23.4583 43.0167L22.9967 43.0901C22.745 43.1216 22.2835 43.237 21.9793 43.3419L21.4338 43.5307L21.4023 44.0342C21.3709 44.4747 21.3919 44.5272 21.5597 44.4642C22.0002 44.2859 22.9233 44.0866 23.2485 44.0866C23.7415 44.0866 24.7799 44.6635 25.2519 45.209C25.6191 45.618 25.703 45.66 26.133 45.66H26.6051L26.3848 45.2509C26.2589 45.0201 26.1855 44.8104 26.2169 44.7789C26.2484 44.7369 26.5106 44.8104 26.7939 44.9362C27.3288 45.1775 28.5141 45.3138 28.9756 45.1985C29.1644 45.1565 29.2484 45.0621 29.2484 44.8943C29.2484 44.6845 29.1644 44.6425 28.5456 44.5272C27.5596 44.3488 26.2065 43.6775 25.6505 43.1111C24.8324 42.2719 24.1715 40.6566 24.0876 39.314L24.0561 38.7895L26.0386 38.286C28.3358 37.7091 29.5735 37.2685 31.1889 36.4504C36.2447 33.9225 38.7202 30.1043 38.7202 24.7863C38.7202 22.4052 38.2167 20.108 37.1468 17.6535C35.7517 14.4543 35.3112 13.269 34.8497 11.4648C34.7133 10.9194 34.5979 10.269 34.5979 10.0278V9.58724L35.0804 9.79702C35.6573 10.0593 36.1398 10.0068 36.4755 9.63968C36.6958 9.40892 36.7063 9.325 36.6328 8.5383C36.5909 7.96139 36.6014 7.53133 36.6958 7.21665C36.8531 6.65023 37.451 5.92646 37.923 5.73766C38.3111 5.56983 39.3181 5.54885 39.8006 5.68521C40.1258 5.77961 40.1153 5.74815 39.2971 4.55236C37.6608 2.18178 37.0419 1.55242 35.7517 0.923061C35.4371 0.776211 34.965 0.534958 34.7028 0.398594C34.4406 0.262234 33.9476 0.115383 33.6119 0.0734253L32.993 0L33.2238 0.388107Z" fill="#FAB414"/>
</svg>
