<svg width="37" height="25" viewBox="0 0 37 25" fill="none" xmlns="http://www.w3.org/2000/svg">
<path d="M1.58773 14.8779L9.6478 22.9753C10.5643 23.896 11.8009 24.4228 13.0885 24.435L31.9744 24.6139C34.657 24.6394 36.8194 22.4869 36.8064 19.8042L36.7368 5.47838C36.7238 2.79564 34.5403 0.60204 31.8576 0.576623L12.9718 0.397686C11.6841 0.385486 10.4526 0.888879 9.54492 1.79237L1.5681 9.73244C0.147813 11.1354 0.159018 13.4426 1.58773 14.8779ZM12.7434 14.1251C11.7983 15.0658 10.2639 15.0513 9.30959 14.0926C8.35532 13.1339 8.34786 11.5994 9.29291 10.6587C10.238 9.71801 11.7724 9.73255 12.7267 10.6912C13.681 11.6499 13.6884 13.1844 12.7434 14.1251Z" fill="#FA4B14"/>
</svg>
