<svg width="50" height="41" viewBox="0 0 50 41" fill="none" xmlns="http://www.w3.org/2000/svg">
<path d="M39.7432 0.0787811C37.9166 0.498817 36.2657 2.23758 35.748 4.27917C35.4549 5.40253 35.4159 6.77009 35.5819 9.57361C35.7675 12.7776 35.6698 14.0377 35.1521 14.8778C34.8005 15.4444 34.8395 15.4541 32.7296 14.194C29.7112 12.3869 27.6207 11.6543 25.4815 11.6543C22.9808 11.664 19.0441 12.6506 9.48093 15.6691C7.43935 16.3138 5.37823 16.9389 4.89958 17.0562C3.92274 17.3004 3.79575 17.3687 3.79575 17.6813C3.79575 17.9548 4.10834 18.287 5.0461 19.0489C5.53452 19.4396 5.72012 19.6448 5.6322 19.6838C5.56382 19.7229 4.82143 19.7913 3.99112 19.8206C0.796875 19.9574 -0.209264 20.2309 0.0349441 20.8756C0.122859 21.1002 0.728496 21.3933 1.79325 21.7254C3.11197 22.1259 4.22556 22.6827 4.8605 23.2493C5.14379 23.513 5.71035 24.1675 6.12062 24.7048C8.32826 27.6157 10.3112 29.4913 12.6459 30.8784C15.0293 32.285 17.5789 33.0176 20.3336 33.086C20.8024 33.0958 21.1834 33.1153 21.1834 33.1348C21.1834 33.1544 21.0955 33.3497 20.988 33.5549C20.695 34.141 20.4605 34.2387 19.2493 34.3266C17.9403 34.4243 17.5789 34.5903 17.8426 34.9811C17.8817 35.0397 18.3994 35.4109 18.9855 35.8016C20.3042 36.6807 20.9978 37.3255 21.3983 38.0385C21.8867 38.9079 22.1505 39.2205 22.3947 39.2205C22.6584 39.2205 22.9026 38.9763 22.9905 38.6051C23.0296 38.4586 23.1175 38.3414 23.1859 38.3414C23.2543 38.3414 23.8404 38.82 24.4949 39.4061C25.7648 40.5392 26.5267 41.0277 26.849 40.93C27.1519 40.8323 27.0932 40.4513 26.6537 39.6601C26.4388 39.2694 26.2629 38.9275 26.2629 38.8982C26.2629 38.8689 26.5365 38.9372 26.8686 39.0349C27.6403 39.2791 28.832 39.2596 28.8809 39.0154C28.9004 38.9079 28.7148 38.7321 28.3436 38.4977C27.6793 38.0972 27.7868 38.0581 29.0469 38.2828C30.0921 38.4684 30.6685 38.7028 31.5281 39.2987C32.5928 40.0411 33.1008 39.9434 32.9738 39.0154C32.9249 38.6735 32.9445 38.6344 33.1399 38.6344C33.2473 38.6344 33.9506 38.8102 34.6832 39.0154C36.1973 39.455 37.0765 39.5917 37.3793 39.4257C37.7017 39.2498 37.5356 38.9763 36.7346 38.3707L36.002 37.8041L36.4513 37.7357C37.2132 37.6283 37.9654 37.3743 38.2487 37.1203C38.4929 36.8957 38.5027 36.8663 38.3659 36.7491C38.2682 36.6807 37.4575 36.5538 36.4122 36.4463C33.9506 36.2021 31.8895 35.8504 31.3425 35.5769L30.9029 35.362L30.9127 34.0238C30.9224 33.2911 30.9517 32.578 30.9908 32.4511C31.0397 32.2362 31.1471 32.2069 32.3095 32.0017C36.129 31.3375 39.5088 30.1848 41.0229 29.0321C42.3905 27.9967 43.4748 26.2189 44.012 24.1284C44.266 23.1125 44.2855 22.9367 44.2855 21.0026C44.2758 18.5507 44.1976 18.1502 43.211 15.63C41.9314 12.3576 41.4527 10.8044 41.3355 9.55407C41.2769 8.79214 41.4039 8.30372 41.6871 8.20604C41.7848 8.17673 42.0974 8.20604 42.3905 8.25488C42.6835 8.31349 43.1133 8.33303 43.3575 8.30372C43.9436 8.22557 44.2367 8.42094 45.0865 9.44662C46.2978 10.8923 47.2453 11.6347 48.3882 12.0157C49.2771 12.3087 50 12.1622 50 11.6836C50 11.3124 49.4823 10.4723 48.6422 9.48569C47.6068 8.26465 47.4309 7.9423 46.7667 6.09608C45.7019 3.11673 44.7935 1.62218 43.5822 0.850479C42.5272 0.176464 40.8178 -0.165428 39.7432 0.0787811ZM28.6464 32.7441C28.9883 33.8479 29.0958 35.4304 28.8613 35.8797C28.7734 36.036 28.4217 36.3096 27.9626 36.5733C27.5328 36.8077 27.0542 37.1008 26.8881 37.2278L26.5853 37.4524L25.7159 36.9054C24.2214 35.9579 22.9808 34.9908 22.7952 34.6196C22.6682 34.3852 22.6877 34.307 22.9515 33.7405C23.1175 33.3986 23.2934 33.0958 23.3422 33.0567C23.4008 33.0274 23.9771 32.9688 24.6316 32.9297C25.2861 32.8906 26.3313 32.8027 26.9467 32.7246C28.5292 32.5487 28.5878 32.5487 28.6464 32.7441Z" fill="#FAB414"/>
</svg>
