<svg width="210" height="44" viewBox="0 0 210 44" fill="none" xmlns="http://www.w3.org/2000/svg">
<g filter="url(#filter0_d_1003_2326)">
<path d="M50.517 31V13.5455H62.0739V16.5881H54.2074V20.7472H61.3068V23.7898H54.2074V31H50.517ZM65.3849 31H61.4304L67.456 13.5455H72.2116L78.2287 31H74.2741L69.902 17.5341H69.7656L65.3849 31ZM65.1378 24.1392H74.4787V27.0199H65.1378V24.1392ZM80.3295 31V13.5455H87.2159C88.5341 13.5455 89.6591 13.7812 90.5909 14.2528C91.5284 14.7187 92.2415 15.3807 92.7301 16.2386C93.2244 17.0909 93.4716 18.0937 93.4716 19.2472C93.4716 20.4062 93.2216 21.4034 92.7216 22.2386C92.2216 23.0682 91.4972 23.7045 90.5483 24.1477C89.6051 24.5909 88.4631 24.8125 87.1222 24.8125H82.5114V21.8466H86.5256C87.2301 21.8466 87.8153 21.75 88.2812 21.5568C88.7472 21.3636 89.0938 21.0739 89.321 20.6875C89.554 20.3011 89.6705 19.821 89.6705 19.2472C89.6705 18.6676 89.554 18.179 89.321 17.7812C89.0938 17.3835 88.7443 17.0824 88.2727 16.8778C87.8068 16.6676 87.2188 16.5625 86.5085 16.5625H84.0199V31H80.3295ZM89.7557 23.0568L94.0938 31H90.0199L85.7756 23.0568H89.7557ZM96.0795 13.5455H100.631L105.438 25.2727H105.642L110.449 13.5455H115V31H111.42V19.6392H111.276L106.759 30.9148H104.321L99.804 19.5966H99.6591V31H96.0795V13.5455ZM127.509 18.5653C127.441 17.8778 127.148 17.3437 126.631 16.9631C126.114 16.5824 125.413 16.392 124.526 16.392C123.924 16.392 123.415 16.4773 123.001 16.6477C122.586 16.8125 122.268 17.0426 122.046 17.3381C121.83 17.6335 121.722 17.9688 121.722 18.3438C121.711 18.6562 121.776 18.929 121.918 19.1619C122.066 19.3949 122.268 19.5966 122.523 19.767C122.779 19.9318 123.075 20.0767 123.41 20.2017C123.745 20.321 124.103 20.4233 124.484 20.5085L126.052 20.8835C126.813 21.054 127.512 21.2812 128.148 21.5653C128.785 21.8494 129.336 22.1989 129.802 22.6136C130.268 23.0284 130.629 23.517 130.884 24.0795C131.146 24.642 131.279 25.2869 131.285 26.0142C131.279 27.0824 131.006 28.0085 130.467 28.7926C129.933 29.571 129.16 30.1761 128.148 30.608C127.143 31.0341 125.93 31.2472 124.509 31.2472C123.1 31.2472 121.873 31.0312 120.827 30.5994C119.788 30.1676 118.975 29.5284 118.39 28.6818C117.81 27.8295 117.506 26.7756 117.478 25.5199H121.049C121.089 26.1051 121.256 26.5937 121.552 26.9858C121.853 27.3722 122.254 27.6648 122.754 27.8636C123.259 28.0568 123.83 28.1534 124.467 28.1534C125.092 28.1534 125.634 28.0625 126.094 27.8807C126.56 27.6989 126.921 27.446 127.177 27.1222C127.433 26.7983 127.56 26.4261 127.56 26.0057C127.56 25.6136 127.444 25.2841 127.211 25.017C126.984 24.75 126.648 24.5227 126.205 24.3352C125.768 24.1477 125.231 23.9773 124.594 23.8239L122.694 23.3466C121.222 22.9886 120.06 22.429 119.208 21.6676C118.356 20.9062 117.933 19.8807 117.938 18.5909C117.933 17.5341 118.214 16.6108 118.782 15.821C119.356 15.0312 120.143 14.4148 121.143 13.9716C122.143 13.5284 123.279 13.3068 124.552 13.3068C125.847 13.3068 126.978 13.5284 127.944 13.9716C128.915 14.4148 129.671 15.0312 130.211 15.821C130.751 16.6108 131.029 17.5256 131.046 18.5653H127.509ZM133.102 16.5881V13.5455H147.438V16.5881H142.094V31H138.446V16.5881H133.102ZM165.041 22.2727C165.041 24.1761 164.68 25.7955 163.959 27.1307C163.243 28.4659 162.266 29.4858 161.027 30.1903C159.794 30.8892 158.408 31.2386 156.868 31.2386C155.317 31.2386 153.925 30.8864 152.692 30.1818C151.459 29.4773 150.484 28.4574 149.768 27.1222C149.053 25.7869 148.695 24.1705 148.695 22.2727C148.695 20.3693 149.053 18.75 149.768 17.4148C150.484 16.0795 151.459 15.0625 152.692 14.3636C153.925 13.6591 155.317 13.3068 156.868 13.3068C158.408 13.3068 159.794 13.6591 161.027 14.3636C162.266 15.0625 163.243 16.0795 163.959 17.4148C164.68 18.75 165.041 20.3693 165.041 22.2727ZM161.3 22.2727C161.3 21.0398 161.115 20 160.746 19.1534C160.382 18.3068 159.868 17.6648 159.203 17.2273C158.538 16.7898 157.76 16.571 156.868 16.571C155.976 16.571 155.197 16.7898 154.533 17.2273C153.868 17.6648 153.351 18.3068 152.982 19.1534C152.618 20 152.436 21.0398 152.436 22.2727C152.436 23.5057 152.618 24.5455 152.982 25.392C153.351 26.2386 153.868 26.8807 154.533 27.3182C155.197 27.7557 155.976 27.9744 156.868 27.9744C157.76 27.9744 158.538 27.7557 159.203 27.3182C159.868 26.8807 160.382 26.2386 160.746 25.392C161.115 24.5455 161.3 23.5057 161.3 22.2727ZM183.175 19.6562H179.442C179.374 19.1733 179.235 18.7443 179.025 18.3693C178.815 17.9886 178.545 17.6648 178.215 17.3977C177.886 17.1307 177.505 16.9261 177.073 16.7841C176.647 16.642 176.184 16.571 175.684 16.571C174.781 16.571 173.994 16.7955 173.323 17.2443C172.653 17.6875 172.133 18.3352 171.763 19.1875C171.394 20.0341 171.21 21.0625 171.21 22.2727C171.21 23.517 171.394 24.5625 171.763 25.4091C172.138 26.2557 172.661 26.8949 173.332 27.3267C174.002 27.7585 174.778 27.9744 175.658 27.9744C176.153 27.9744 176.61 27.9091 177.031 27.7784C177.457 27.6477 177.835 27.4574 178.164 27.2074C178.494 26.9517 178.766 26.642 178.982 26.2784C179.204 25.9148 179.357 25.5 179.442 25.0341L183.175 25.0511C183.079 25.8523 182.837 26.625 182.451 27.3693C182.07 28.108 181.556 28.7699 180.908 29.3551C180.266 29.9347 179.499 30.3949 178.607 30.7358C177.721 31.071 176.718 31.2386 175.599 31.2386C174.042 31.2386 172.65 30.8864 171.423 30.1818C170.201 29.4773 169.235 28.4574 168.525 27.1222C167.82 25.7869 167.468 24.1705 167.468 22.2727C167.468 20.3693 167.826 18.75 168.542 17.4148C169.258 16.0795 170.229 15.0625 171.457 14.3636C172.684 13.6591 174.065 13.3068 175.599 13.3068C176.61 13.3068 177.548 13.4489 178.411 13.733C179.281 14.017 180.05 14.4318 180.721 14.9773C181.391 15.517 181.937 16.179 182.357 16.9631C182.783 17.7472 183.056 18.6449 183.175 19.6562ZM185.822 31V13.5455H189.512V21.2415H189.742L196.023 13.5455H200.447L193.969 21.3608L200.523 31H196.109L191.327 23.8239L189.512 26.0398V31H185.822Z" fill="#FAB414"/>
</g>
<g filter="url(#filter1_d_1003_2326)">
<ellipse cx="30.1272" cy="25.4773" rx="0.60332" ry="0.565875" fill="#FAB414"/>
<path d="M13.6663 11.3557L22.8766 6.41922C23.893 5.86026 23.8776 5.86026 25.0695 6.41922C25.7713 6.74832 34.1337 10.9443 38.2272 13.0012C40.307 14.0462 39.9815 13.8239 39.9815 15.058C39.9815 15.3564 39.9815 17.4132 39.9815 19.9945M36.9114 32.3356C39.9815 30.6901 39.9815 30.2788 39.9815 29.456C39.9815 26.9823 39.9815 23.1071 39.9815 19.9945M36.9114 32.3356C34.4553 33.652 28.2858 36.9978 25.5081 38.5062C24.2952 39.1648 24.2801 39.1644 22.8766 38.5062C22.3242 38.2471 20.704 37.3286 18.6642 36.2185M36.9114 32.3356C36.619 32.3356 35.0693 32.3356 31.2097 32.3356C26.3853 32.3356 25.9467 31.1015 25.5081 31.1015C23.7538 31.4306 22.7304 30.6901 22.438 30.2788C22.2918 29.3189 22.1748 27.3169 22.8766 26.9878C23.5783 26.6587 24.3385 26.8507 24.6309 26.9878C25.6835 26.3296 27.701 23.6968 28.5782 22.4627M7.96461 16.2921V17.1149C7.96461 19.7202 7.96461 25.5068 7.96461 27.8105C7.96461 28.1682 7.96461 27.8105 8.00362 28.7812M7.96461 16.2921C7.52602 15.7436 6.73657 14.4821 7.08744 13.8239C7.52602 13.5497 8.66634 13.1657 9.71895 13.8239C10.7716 14.4821 11.3271 14.9209 11.4733 15.058C11.6195 15.058 12.175 14.8935 13.2277 14.2353C14.2803 13.5771 16.2978 13.961 17.1749 14.2353M7.96461 16.2921C8.83232 17.106 11.4733 17.7436 11.4733 17.7436M17.1749 14.2353L19.8065 16.2921M17.1749 14.2353C17.4673 14.2353 18.3153 13.9062 19.3679 12.5898C20.4205 11.2734 20.6836 12.864 20.6836 13.8239C20.6836 14.6466 20.5082 16.2921 19.8065 16.2921M19.8065 16.2921L24.6309 21.2286M24.6309 21.2286C25.2157 22.0513 25.5958 23.8614 22.438 24.5196C20.6836 24.5196 16.8241 24.4373 15.4206 24.1082C14.0171 23.7791 9.89116 27.0864 8.00362 28.7812M24.6309 21.2286C23.6076 21.2286 21.5608 21.8868 21.5608 24.5196M8.00362 28.7812C8.13915 30.361 8.00362 30.2788 8.84179 31.1015C9.28569 31.3394 9.78186 31.6051 10.3155 31.8905C10.7793 32.1385 11.2753 32.3957 11.7918 32.6597M39.9815 19.9945C39.5429 19.9945 33.4027 19.5831 33.8413 22.8741C33.8413 21.5517 32.6411 18.9697 29.0168 18.3935M28.5782 22.4627C28.1396 22.3256 27.7932 21.8541 27.5129 20.1014C27.2112 18.2152 28.5782 18.349 28.5782 18.349C28.7195 18.349 28.7365 18.349 29.0168 18.3935M28.5782 22.4627C29.163 21.8068 30.0694 20.0747 29.0168 18.3935M11.7918 32.6597C13.3642 33.4632 15.1272 34.3295 16.7537 35.1914C17.4162 35.5425 18.0587 35.8889 18.6642 36.2185M11.7918 32.6597C11.8181 31.8456 12.1049 30.4008 12.945 29.344M18.6642 36.2185C18.648 35.5211 18.5503 33.8455 18.4601 32.7393M18.2491 31.1015C18.1931 30.7825 18.1305 30.5019 18.0609 30.2788C17.9124 29.8026 17.6673 29.3924 17.3595 29.0611M18.2491 31.1015C19.353 31.284 20.7933 31.6817 20.6335 31.7697C20.0719 32.0791 18.8922 32.645 18.4601 32.7393M18.2491 31.1015C18.3605 31.7347 18.396 31.9531 18.4601 32.7393M17.3595 29.0611C16.6251 28.2708 15.5334 27.9292 14.5415 28.2123C13.8646 28.4305 13.3428 28.8438 12.945 29.344M17.3595 29.0611C17.7263 28.9185 18.4601 28.4687 18.4601 27.8105C18.4601 26.9878 17.357 26.6074 16.9548 26.7976C16.5526 26.9878 16.1504 25.8545 15.1448 25.9488C14.1393 26.0431 13.8443 26.6121 13.536 26.9878C13.2893 27.2883 12.9639 27.4264 12.8321 27.4578C12.1365 27.6464 11.1852 28.2877 12.945 29.344" stroke="#FAB414" stroke-linecap="round" stroke-linejoin="round"/>
<ellipse cx="16.0499" cy="30.7587" rx="0.60332" ry="0.565875" fill="#FAB414"/>
<ellipse cx="17.8597" cy="18.1208" rx="0.60332" ry="0.565875" fill="#FAB414"/>
</g>
<path d="M15.1554 20.3014L15.5651 21.1142C15.6385 21.26 15.5771 21.4317 15.4279 21.4979C15.2787 21.564 15.0982 21.4995 15.0247 21.3538L14.6236 20.5579C14.5683 20.448 14.5563 20.3237 14.59 20.2086L14.6316 20.0665C14.6363 20.0506 14.6537 20.0417 14.6704 20.0468L14.9536 20.1331C15.0417 20.16 15.115 20.2211 15.1554 20.3014Z" fill="#FAB414" stroke="#E6A500"/>
<path d="M34.2426 26.7173L34.6246 27.5375C34.6937 27.686 34.6269 27.8568 34.4753 27.9189C34.3237 27.981 34.1448 27.9109 34.0756 27.7624L33.7014 26.959C33.6494 26.8473 33.6413 26.7223 33.6788 26.6079L33.7246 26.4679C33.73 26.4514 33.7484 26.4427 33.7657 26.4485L34.045 26.5423C34.1326 26.5718 34.2044 26.6354 34.2426 26.7173Z" fill="#FAB414" stroke="#E6A500"/>
<defs>
<filter id="filter0_d_1003_2326" x="48.5171" y="13.3068" width="154.006" height="21.9404" filterUnits="userSpaceOnUse" color-interpolation-filters="sRGB">
<feFlood flood-opacity="0" result="BackgroundImageFix"/>
<feColorMatrix in="SourceAlpha" type="matrix" values="0 0 0 0 0 0 0 0 0 0 0 0 0 0 0 0 0 0 127 0" result="hardAlpha"/>
<feOffset dy="2"/>
<feGaussianBlur stdDeviation="1"/>
<feComposite in2="hardAlpha" operator="out"/>
<feColorMatrix type="matrix" values="0 0 0 0 0 0 0 0 0 0 0 0 0 0 0 0 0 0 0.15 0"/>
<feBlend mode="normal" in2="BackgroundImageFix" result="effect1_dropShadow_1003_2326"/>
<feBlend mode="normal" in="SourceGraphic" in2="effect1_dropShadow_1003_2326" result="shape"/>
</filter>
<filter id="filter1_d_1003_2326" x="4.5" y="4.5" width="38" height="38" filterUnits="userSpaceOnUse" color-interpolation-filters="sRGB">
<feFlood flood-opacity="0" result="BackgroundImageFix"/>
<feColorMatrix in="SourceAlpha" type="matrix" values="0 0 0 0 0 0 0 0 0 0 0 0 0 0 0 0 0 0 127 0" result="hardAlpha"/>
<feOffset dy="1"/>
<feGaussianBlur stdDeviation="1"/>
<feComposite in2="hardAlpha" operator="out"/>
<feColorMatrix type="matrix" values="0 0 0 0 0 0 0 0 0 0 0 0 0 0 0 0 0 0 0.2 0"/>
<feBlend mode="normal" in2="BackgroundImageFix" result="effect1_dropShadow_1003_2326"/>
<feBlend mode="normal" in="SourceGraphic" in2="effect1_dropShadow_1003_2326" result="shape"/>
</filter>
</defs>
</svg>
