<svg width="50" height="45" viewBox="0 0 50 45" fill="none" xmlns="http://www.w3.org/2000/svg">
<path d="M32.1378 0.0938683C31.5614 0.328358 31.1608 0.924355 31.1608 1.54966C31.1608 2.39968 31.62 2.87843 32.7827 3.24971C33.3103 3.42558 34.5022 4.09973 34.5511 4.24629C34.5609 4.29514 33.9453 5.56529 33.1832 7.06993L31.7958 9.80564L20.9507 10.4016C13.0855 10.8413 9.89061 11.0563 9.32393 11.1735C7.74112 11.5057 6.11924 12.3362 4.86863 13.4598C4.23355 14.0265 0.247229 18.9605 0.0909027 19.3709C-0.0556533 19.7714 -0.0263421 20.1818 0.188607 20.6019C0.432867 21.0905 0.843223 21.3738 1.40014 21.4422C1.80072 21.5008 1.84957 21.5399 1.84957 21.7548C1.84957 21.8916 2.0059 22.6635 2.20131 23.4744C2.75822 25.8096 2.68006 26.8843 1.81049 28.8091C1.576 29.3171 1.24381 30.1281 1.06794 30.6068L0.735749 31.4666L1.55646 37.5927C2.16223 42.175 2.41626 43.7969 2.55304 44.0802C2.85593 44.6762 3.61802 45.0279 4.29217 44.8814C4.72207 44.7837 5.33761 44.1486 5.41577 43.7187C5.46462 43.5037 5.27898 41.8135 4.92725 39.2048C4.62437 36.9185 4.38988 35.0328 4.40942 35.023C4.42896 35.0035 5.01518 34.7983 5.70888 34.5541C6.41235 34.3098 7.21352 34.0167 7.48709 33.8994L8.00492 33.6943L8.05378 33.919C8.07332 34.0362 8.38597 36.2639 8.7377 38.8726C9.46071 44.2268 9.48025 44.3245 10.2521 44.7153C10.4866 44.8325 10.809 44.9302 10.9654 44.9302C11.6591 44.9302 12.3821 44.2854 12.4602 43.5917C12.4895 43.3865 12.1573 40.6899 11.7274 37.6024L10.9458 31.9844L11.405 31.6034C12.1671 30.9586 12.9585 30.0792 13.5838 29.1803C13.9062 28.7016 14.1798 28.3205 14.1994 28.3205C14.2091 28.3205 14.6879 28.4964 15.2546 28.7114C17.6483 29.6102 20.6283 30.1085 23.3933 30.0694C24.3215 30.0597 24.5657 30.0792 24.5853 30.1867C24.5951 30.2649 24.7025 31.7304 24.81 33.4402L25.025 36.557L25.8457 40.2697C26.4319 42.9077 26.7348 44.0704 26.8813 44.2756C27.1158 44.598 27.7509 44.9205 28.1613 44.9302C28.8256 44.9302 29.5487 44.3049 29.6659 43.6308C29.705 43.3865 29.4803 42.2238 28.9624 39.8789L28.2101 36.4691L29.8515 32.6293C30.7602 30.5189 31.5027 28.8286 31.5223 28.8677C31.532 28.9165 31.6591 30.6459 31.7958 32.7172L32.0499 36.4788L32.8804 40.2404C33.5447 43.2595 33.7597 44.0607 33.9453 44.3049C34.2482 44.6957 34.9419 44.9791 35.4207 44.9009C36.1046 44.7837 36.7299 44.0704 36.7299 43.3963C36.7299 43.2497 36.3782 41.5594 35.9483 39.6542L35.1666 36.1857L34.8051 30.7827L34.4436 25.3894L34.6781 25.2233C35.2253 24.8618 36.9253 23.0348 37.4431 22.2531C37.746 21.7939 38.5179 20.2991 39.1432 18.9312C39.7685 17.5633 40.2961 16.43 40.3059 16.4202C40.3156 16.4007 40.5794 16.4397 40.8725 16.5081L41.4197 16.6254V17.2605C41.4197 18.0128 41.6053 18.4622 42.0841 18.8237C42.3674 19.0387 42.5335 19.0875 42.9829 19.0875C43.9502 19.0875 44.5462 18.4231 44.5462 17.3386V16.7915H45.0152C48.2199 16.7915 50.5648 13.9092 49.8808 10.812C49.617 9.62978 49.2458 9.14126 46.6468 6.50325C44.1554 3.99226 43.3054 3.2204 42.4651 2.76119L41.9571 2.47785L39.6219 2.44854L37.277 2.41922L36.8374 2.04795C35.8701 1.25655 34.6488 0.562847 33.5252 0.191574C32.8706 -0.0331459 32.5189 -0.0526848 32.1378 0.0938683Z" fill="#FAB414"/>
</svg>
