<svg width="271" height="271" viewBox="0 0 271 271" fill="none" xmlns="http://www.w3.org/2000/svg">
<ellipse cx="187.916" cy="159.047" rx="4.77171" ry="4.47555" fill="#E6A500"/>
<path d="M57.724 47.3585L130.569 8.31565C138.608 3.8948 138.487 3.89477 147.914 8.31565C153.464 10.9185 219.603 44.1049 251.978 60.3728C268.428 68.6382 265.854 66.8799 265.854 76.6407C265.854 79.0006 265.854 95.2684 265.854 115.684M241.572 213.291C265.854 200.276 265.854 197.023 265.854 190.516C265.854 170.951 265.854 140.302 265.854 115.684M241.572 213.291C222.146 223.702 173.352 250.165 151.382 262.094C141.789 267.304 141.67 267.3 130.569 262.094C126.2 260.045 113.386 252.781 97.2531 244.001M241.572 213.291C239.259 213.291 227.003 213.291 196.477 213.291C158.32 213.291 154.851 203.53 151.382 203.53C137.507 206.133 129.413 200.276 127.101 197.023C125.944 189.431 125.019 173.597 130.569 170.994C136.119 168.391 142.132 169.91 144.445 170.994C152.77 165.789 168.726 144.966 175.664 135.205M12.6292 86.4014V92.9085C12.6292 113.515 12.6292 159.281 12.6292 177.501C12.6292 180.33 12.6292 177.501 12.9377 185.179M12.6292 86.4014C9.16037 82.0633 2.91648 72.0857 5.69155 66.8799C9.16035 64.7109 18.1793 61.6742 26.5045 66.8799C34.8296 72.0857 39.2235 75.5561 40.3798 76.6407C41.5361 76.6407 45.9299 75.3392 54.2551 70.1335C62.5803 64.9278 78.5369 67.9645 85.4746 70.1335M12.6292 86.4014C19.492 92.8383 40.3798 97.8814 40.3798 97.8814M85.4746 70.1335L106.288 86.4014M85.4746 70.1335C87.7871 70.1335 94.4935 67.5307 102.819 57.1192C111.144 46.7078 113.225 59.2883 113.225 66.8799C113.225 73.3871 111.838 86.4014 106.288 86.4014M106.288 86.4014L144.445 125.444M144.445 125.444C149.07 131.951 152.076 146.267 127.101 151.473C113.225 151.473 82.6995 150.822 71.5992 148.219C60.499 145.616 27.8664 171.774 12.9377 185.179M144.445 125.444C136.351 125.444 120.163 130.65 120.163 151.473M12.9377 185.179C14.0097 197.673 12.9377 197.023 19.5669 203.53C23.0777 205.412 27.0019 207.513 31.2227 209.77C34.8909 211.732 38.8136 213.766 42.8991 215.854M265.854 115.684C262.385 115.684 213.821 112.43 217.29 138.459C217.29 128 207.798 107.578 179.133 103.022M175.664 135.205C172.195 134.12 169.455 130.391 167.238 116.53C164.852 101.611 175.664 102.669 175.664 102.669C176.782 102.669 176.916 102.669 179.133 103.022M175.664 135.205C180.289 130.017 187.458 116.318 179.133 103.022M42.8991 215.854C55.3347 222.209 69.2786 229.061 82.1427 235.878C87.3826 238.654 92.4641 241.394 97.2531 244.001M42.8991 215.854C43.107 209.415 45.3749 197.988 52.0198 189.63M97.2531 244.001C97.125 238.485 96.3524 225.232 95.6389 216.484M93.9705 203.53C93.527 201.007 93.032 198.788 92.4814 197.023C91.3068 193.257 89.3688 190.013 86.9339 187.392M93.9705 203.53C102.701 204.973 114.093 208.119 112.828 208.815C108.387 211.262 99.0562 215.738 95.6389 216.484M93.9705 203.53C94.8509 208.538 95.1318 210.266 95.6389 216.484M86.9339 187.392C81.1261 181.142 72.4914 178.44 64.6464 180.679C59.2926 182.405 55.1657 185.673 52.0198 189.63M86.9339 187.392C89.8356 186.264 95.6389 182.707 95.6389 177.501C95.6389 170.994 86.9144 167.986 83.7333 169.49C80.5521 170.994 77.371 162.031 69.4181 162.777C61.4653 163.523 59.1321 168.023 56.6936 170.994C54.7428 173.371 52.1694 174.463 51.1266 174.712C45.6249 176.204 38.1011 181.276 52.0198 189.63" stroke="#E6A500" stroke-width="10" stroke-linecap="round" stroke-linejoin="round"/>
<ellipse cx="76.5759" cy="200.819" rx="4.77171" ry="4.47555" fill="#E6A500"/>
<ellipse cx="90.8909" cy="100.865" rx="4.77171" ry="4.47555" fill="#E6A500"/>
</svg>
