<svg width="25" height="20" viewBox="0 0 25 20" fill="none" xmlns="http://www.w3.org/2000/svg">
<rect y="4" width="24" height="13" fill="#D9D9D9"/>
<path d="M21.75 0H2.41667C1.07542 0 0.0120833 1.07542 0.0120833 2.41667L0 16.9167C0 18.2579 1.07542 19.3333 2.41667 19.3333H21.75C23.0912 19.3333 24.1667 18.2579 24.1667 16.9167V2.41667C24.1667 1.07542 23.0912 0 21.75 0ZM7.85417 13.2917H6.40417L3.32292 9.0625V13.2917H1.8125V6.04167H3.32292L6.34375 10.2708V6.04167H7.85417V13.2917ZM13.8958 7.56417H10.875V8.9175H13.8958V10.44H10.875V11.7813H13.8958V13.2917H9.0625V6.04167H13.8958V7.56417ZM22.3542 12.0833C22.3542 12.7479 21.8104 13.2917 21.1458 13.2917H16.3125C15.6479 13.2917 15.1042 12.7479 15.1042 12.0833V6.04167H16.6146V11.4913H17.98V7.23792H19.4904V11.4792H20.8437V6.04167H22.3542V12.0833Z" fill="#9FAF38"/>
</svg>
