<svg width="65" height="33" viewBox="0 0 65 33" fill="none" xmlns="http://www.w3.org/2000/svg">
<path d="M42.5927 0.0665741C44.7646 0.345995 46.6062 1.03185 51.4834 3.38152C56.6654 5.8709 58.1133 6.73456 60.0565 8.43649L61.0345 9.31285L61.6569 9.14774C62.6602 8.86832 62.9904 8.70321 63.5112 8.24598C63.7779 8.00466 64.0446 7.80144 64.0954 7.80144C64.3113 7.80144 64.5019 8.13167 64.5019 8.5127C64.5019 8.80482 64.5654 8.93183 64.7559 8.98263C65.2639 9.10964 65.0099 9.69388 63.7017 11.3196C63.0667 12.1198 62.8634 12.2595 62.0252 12.5389L61.5171 12.7167L61.2377 14.3551C61.0853 15.2569 60.9837 16.1841 61.0345 16.4127C61.098 16.8191 61.5806 17.3271 61.9109 17.3271C61.9998 17.3271 62.1014 17.4288 62.1395 17.5431C62.2411 17.8733 63.1429 18.267 63.5366 18.1654C63.9811 18.0511 64.0319 18.2289 63.8033 19.0037C63.7017 19.3593 63.6128 19.9562 63.6128 20.3119C63.6128 21.0612 63.2699 21.5185 62.6983 21.5185C62.5205 21.5185 62.2411 21.6328 62.076 21.7598C61.8093 21.9757 61.7966 22.0392 61.9363 22.2805C62.1395 22.6107 62.076 22.6996 61.5044 22.9791C61.1234 23.1569 60.844 23.1823 60.0692 23.1188C59.2818 23.0553 58.9134 23.0807 58.0879 23.322C56.6019 23.7284 53.9601 23.7411 52.9059 23.3347C51.966 22.9664 51.6866 22.9664 50.9119 23.3601C50.5689 23.5379 50.0863 23.6776 49.8323 23.6776C49.121 23.6776 48.9305 24.1094 48.8416 25.9765C48.7527 28.0721 48.9559 28.8342 50.0609 30.3583C50.823 31.4252 51.0516 31.8443 50.9373 31.9586C50.7086 32.1872 49.8069 32.2126 49.0956 32.0094C48.7146 31.8951 48.2574 31.8062 48.0796 31.8062C47.6223 31.8062 47.5334 31.6284 47.1778 30.117C47 29.3676 46.6824 28.4024 46.4792 27.9705C46.2887 27.526 46.0728 27.0434 46.0347 26.8782C45.9839 26.7258 45.895 26.5988 45.8315 26.5988C45.6664 26.5988 45.387 27.0688 45.2091 27.6149C44.9297 28.4532 43.9899 29.3041 42.6054 29.9519C41.1956 30.625 41.0686 30.6123 41.0686 29.736C41.0686 29.3803 41.1702 29.0628 41.3608 28.7961C41.691 28.3389 41.7037 28.2499 41.4624 28.2499C40.9289 28.2499 41.1702 27.6149 41.7926 27.3482C42.3514 27.1196 43.1643 26.3067 43.1643 25.9765C43.1643 25.8114 42.923 25.5446 42.4657 25.2017C42.0847 24.9223 41.6402 24.5159 41.4878 24.3127C41.3354 24.0967 40.9543 23.7792 40.6368 23.5887C40.3193 23.4109 39.8112 23.068 39.5064 22.8266C38.973 22.4202 38.9222 22.4075 37.7664 22.4075C37.1186 22.4075 35.5945 22.5218 34.3752 22.6742C31.2127 23.0553 29.3838 23.0299 27.4786 22.5853C25.2052 22.0646 22.3221 22.09 21.4711 22.6488C21.2552 22.7758 20.8996 25.57 21.0139 26.2178C21.052 26.4591 21.4457 27.3228 21.9029 28.1229C22.3475 28.9231 22.8555 29.9519 23.0333 30.3964C23.1984 30.8409 23.4397 31.349 23.5541 31.5141C23.6557 31.6919 23.7192 31.8697 23.6684 31.9078C23.6303 31.9586 23.0587 31.9967 22.3983 31.9967C21.3949 31.9967 21.179 31.9586 20.9377 31.7427C20.7852 31.603 20.5058 31.4887 20.3153 31.4887C19.9978 31.4887 19.9724 31.4379 19.8327 30.5996C19.6168 29.266 19.2357 28.3897 18.461 27.4498C17.9275 26.8147 17.6481 26.5734 17.2798 26.4718C16.6574 26.3067 16.4161 26.0527 16.2383 25.2906C16.0224 24.4778 15.7684 24.5032 15.0571 25.4303C14.3205 26.3702 14.2062 26.8274 14.2062 28.758C14.2062 30.1551 14.2443 30.4091 14.4856 30.879C14.638 31.1712 14.7269 31.4506 14.6761 31.5141C14.6253 31.5649 14.1935 31.603 13.7235 31.603C12.8599 31.5903 12.2502 31.3871 11.9327 30.9933C11.8311 30.879 11.6533 30.7901 11.5263 30.7901C11.1325 30.7901 11.1452 30.5869 11.5517 29.3676C12.0851 27.8054 12.1105 26.7893 11.6533 25.9003C11.4755 25.5446 11.2595 25.0239 11.1706 24.7445C11.0055 24.2492 11.0182 24.1729 11.4628 23.2077C11.7168 22.6488 11.92 22.1408 11.92 22.09C11.92 22.0392 11.5009 21.2771 10.9801 20.3881C10.4594 19.5117 9.91325 18.4702 9.76083 18.0892C9.3163 16.9715 8.73206 14.5456 8.64315 13.5169C8.54155 12.45 8.63045 12.5135 7.41116 12.7802C6.91582 12.8818 6.45859 13.0977 6.11567 13.3645C5.2139 14.0757 4.47725 14.3424 3.41037 14.3424C2.66101 14.3424 2.34349 14.2789 1.89896 14.0376C0.870178 13.5042 0.158928 12.4754 0.0192184 11.3704C-0.120491 10.1638 0.52726 9.22395 1.1242 9.77009C1.32742 9.9479 1.37822 10.1638 1.37822 10.7608C1.37822 12.1579 2.00056 12.8945 3.28336 12.9834C3.8295 13.0215 4.15972 12.9707 4.60426 12.7802L5.2012 12.5135L4.60426 11.9673C3.9184 11.345 3.60088 10.7481 3.47387 9.9352C3.27066 8.5635 4.26133 7.29341 5.55683 7.29341C6.5856 7.29341 7.23335 7.82685 7.56357 8.93183C7.72869 9.52877 7.74139 9.78279 7.62708 10.4686C7.55087 10.9132 7.51277 11.3196 7.55087 11.345C7.65248 11.4466 8.27483 11.0275 8.51614 10.6973C8.64315 10.5321 8.78286 10.2146 8.82096 9.9987C8.89717 9.64308 8.85907 9.56687 8.59235 9.46527C8.41454 9.40176 8.14782 9.18584 7.9827 8.98263C7.58897 8.47459 7.67788 7.56013 8.18592 7.02669C8.59235 6.60756 9.3544 6.35354 9.93865 6.44244C10.2181 6.49325 10.4721 6.41704 10.7769 6.21383C11.0182 6.04871 12.0724 5.40097 13.1266 4.75322C14.1681 4.10547 15.4001 3.34341 15.8573 3.06399C17.8005 1.8574 20.0232 0.96834 21.7632 0.688919C23.2238 0.460302 27.4024 0.193583 30.6539 0.117378C37.2584 -0.0223312 41.7418 -0.0350342 42.5927 0.0665741ZM5.09959 8.84292C4.54075 9.37636 4.83287 10.5956 5.64573 11.1164L6.05216 11.3577L6.19187 10.7989C6.5983 9.16044 5.96326 8.03006 5.09959 8.84292Z" fill="#FAB414"/>
</svg>
