<svg width="40" height="46" viewBox="0 0 40 46" fill="none" xmlns="http://www.w3.org/2000/svg">
<path d="M37.4888 0.109364C36.4753 0.396358 35.3991 1.069 34.6726 1.87618C34.2601 2.33358 34.2511 2.33358 33.9103 2.25286C33.6413 2.18111 33.4529 2.19905 33.0224 2.33358C32.5561 2.47708 32.4395 2.54882 32.3139 2.80891C32.2242 2.97035 31.8475 3.36497 31.4798 3.67887C30.3139 4.67439 29.3453 5.93896 28.9865 6.93447C28.6726 7.77753 28.3677 9.1856 28.3049 10.0645C28.2332 10.9434 28.009 11.5892 27.2556 13.1228C26.5381 14.5847 25.5605 15.7416 24.3587 16.5488C24.009 16.782 22.7982 17.4457 21.6592 18.0107C20.5291 18.5847 19.4798 19.1318 19.3274 19.2304C19.1839 19.3291 18.7085 19.643 18.278 19.93C16.6996 20.9704 15.13 22.4322 13.8475 24.0645C13.6861 24.2618 13.0493 25.1856 12.4215 26.1273C11.2197 27.921 10.6009 28.782 9.50673 30.199C8.37668 31.6609 7.77578 32.4591 7.35426 33.078C7.13005 33.4098 6.7713 33.93 6.55605 34.2529C5.91928 35.1766 5.26457 35.8762 3.86547 37.1408C2.18834 38.6564 0.744395 40.1183 0.538117 40.5219C0.188341 41.2125 0 42.0466 0 42.9165C0 43.3829 0.0448431 43.8403 0.0986547 43.9479C0.242152 44.217 1.92825 44.9703 2.79821 45.1408C3.93722 45.3739 4.4574 45.3022 5.57848 44.7372C6.66368 44.1901 8.08969 43.3291 8.78924 42.8089C9.0583 42.6026 9.46188 42.3156 9.6861 42.1811C9.90135 42.0466 10.4126 41.634 10.8161 41.2842C11.2108 40.9255 11.6323 40.5757 11.7578 40.495C12.0359 40.3156 13.13 40.0645 13.5426 40.0914C13.7399 40.1004 14.2422 39.9569 14.8879 39.7058C15.8565 39.3381 15.9731 39.3112 16.8161 39.3112C17.3094 39.3112 18.0269 39.365 18.4126 39.4367C19.2108 39.5802 19.2735 39.6878 18.8341 40.1901C18.6906 40.3605 18.565 40.5847 18.565 40.6923C18.565 40.9076 18.6009 40.9165 18.8431 40.782C18.9865 40.7103 19.0762 40.7372 19.3363 40.9614C19.5605 41.1677 19.7399 41.2394 19.9821 41.2394C20.1614 41.2484 20.5381 41.3201 20.8072 41.4188C21.1031 41.5264 21.5426 41.5982 21.9283 41.5982H22.5561L22.7982 42.1811C22.9417 42.495 23.0493 42.8896 23.0493 43.0511C23.0493 43.2663 23.0762 43.3112 23.139 43.2125C23.2108 43.1049 23.2287 43.1049 23.2825 43.2394C23.3812 43.5174 23.2556 44.3336 23.0583 44.6564C22.8789 44.9434 22.8072 45.365 22.9238 45.4726C22.9776 45.5354 23.7309 45.2573 23.8655 45.1228C23.9372 45.0511 24.0987 45.0869 24.4484 45.2484C25.4978 45.7237 26.3946 45.9031 27.8296 45.9031C29.0762 45.9031 29.148 45.8941 29.148 45.7327C29.148 45.634 29.1121 45.5264 29.0583 45.4995C29.0135 45.4726 28.9686 45.365 28.9686 45.2663C28.9686 45.1138 29.0314 45.0959 29.5336 45.0959L30.0897 45.0869L29.704 44.7372C29.4978 44.5488 29.139 44.3156 28.9238 44.226C28.4753 44.0466 28.4215 43.9569 28.7265 43.9121C28.8969 43.8851 28.861 43.8493 28.5202 43.6609C28.1525 43.4726 28.0179 43.4547 27.1121 43.4726C25.8744 43.4905 25.5426 43.4367 25.2556 43.1587C24.8789 42.782 24.7354 41.0152 25.0673 40.7461C25.1211 40.6923 25.2018 40.504 25.2377 40.3246C25.3004 39.9838 25.6233 39.7147 25.9552 39.7147C26.0359 39.7147 26.2063 39.5443 26.3408 39.3381L26.5919 38.9614L26.6188 39.3381C26.6368 39.5443 26.6816 39.7147 26.7175 39.7147C26.8161 39.7147 27.1749 39.1677 27.4798 38.5668C27.713 38.1094 27.8924 38.0197 27.8924 38.3784C27.8924 38.6923 28.0359 38.5578 28.4215 37.8762C28.8341 37.1587 28.9507 37.0331 29.0493 37.1946C29.0942 37.2573 29.2646 37.1049 29.5247 36.782C29.7489 36.495 30.0538 36.1901 30.2063 36.1004L30.4933 35.939L30.5022 36.2798C30.5112 36.6026 30.5202 36.5937 30.6816 36.0645C30.8431 35.5533 30.9507 35.4008 31.9372 34.4053C33.0045 33.3201 33.3363 32.8717 35.2825 29.939C36.1166 28.6744 36.6457 27.5085 37.1659 25.7686C37.5695 24.4053 37.6682 23.5443 37.6682 21.2035C37.6682 18.1721 37.3901 16.8179 36.3408 14.7372C35.3632 12.7999 35.157 12.1901 35.157 11.1856C35.157 10.5668 35.5426 9.59815 36.0359 8.98829C36.2691 8.69232 36.6099 8.25286 36.7892 8.01071C36.9686 7.75959 37.3901 7.29322 37.7309 6.97035C38.4395 6.27977 38.9776 6.03762 39.5964 6.1004C39.9641 6.14524 40 6.1273 40 5.96587C40 5.53537 39.2108 4.76407 38.4753 4.48605C38.3498 4.43224 37.6951 4.02865 37.0045 3.58022C35.8206 2.79995 35.7399 2.76407 35.2735 2.76407C34.8161 2.76407 34.7892 2.7551 34.8969 2.61161C34.9686 2.53089 35.2018 2.37842 35.426 2.27977C35.7848 2.10936 36 2.09143 37.2646 2.09143C38.5471 2.09143 38.7354 2.07349 39.0135 1.91206C39.426 1.6699 39.6502 1.23044 39.5426 0.862728C39.3274 0.109364 38.5381 -0.177631 37.4888 0.109364ZM22.3857 39.4188C22.3677 39.5085 22.3139 39.8313 22.287 40.1452C22.2422 40.5129 22.1883 40.7013 22.1166 40.6744C22.0628 40.6564 21.8655 40.5847 21.6861 40.5129C21.3543 40.3964 21.3453 40.3874 21.3453 39.921C21.3453 39.4188 21.3094 39.4547 21.9283 39.3291C22.3318 39.2394 22.4305 39.2663 22.3857 39.4188Z" fill="#FAB414"/>
</svg>
