<svg width="40" height="48" viewBox="0 0 40 48" fill="none" xmlns="http://www.w3.org/2000/svg">
<path d="M29.8387 0.111149C29.635 0.361244 28.968 2.76029 28.8939 3.51983C28.8476 3.95518 28.755 4.53873 28.6716 4.81661C28.5883 5.09449 28.5234 5.43721 28.5234 5.57616C28.5234 6.00224 28.3474 5.96519 27.8473 5.45574C26.6061 4.17749 24.6331 2.93628 22.9473 2.37125C21.9376 2.02853 20.1036 1.7877 19.6312 1.93591C19.4182 2.00074 19.2237 2.1119 19.1959 2.17674C19.1403 2.34347 19.9276 3.83476 20.8817 5.37238C21.7524 6.75252 23.503 9.07747 24.5683 10.2446C25.689 11.4765 25.8928 11.9119 26.4393 14.2739C26.6246 15.0612 26.5968 15.1631 26.0596 15.7744C25.8836 15.9597 25.7446 16.1727 25.7446 16.2376C25.7446 16.3024 25.6335 16.5525 25.5038 16.8026C25.3463 17.1082 25.1981 17.6455 25.0499 18.5162C24.8183 19.8963 24.4664 20.7948 23.9754 21.2672C23.8272 21.4062 23.7068 21.5729 23.7068 21.6377C23.7068 21.7026 23.6235 21.7767 23.5216 21.8137C23.4197 21.8415 23.3456 21.9156 23.3641 21.9712C23.3734 22.0268 23.2529 22.1101 23.0862 22.175C22.9288 22.2305 22.6787 22.3973 22.5305 22.5455C22.3915 22.6844 22.1692 22.8511 22.0395 22.9067C21.9099 22.953 21.0577 23.0086 20.1407 23.0179C18.8995 23.0364 18.214 23.092 17.4545 23.2309C16.8987 23.3421 16.0651 23.4717 15.6019 23.5366C15.1481 23.5922 14.7312 23.6755 14.6757 23.7126C14.6294 23.7496 13.9902 23.9812 13.2585 24.222C12.5267 24.4628 11.8598 24.7315 11.7764 24.8148C11.6931 24.9075 11.3781 25.0649 11.0725 25.1761C10.7761 25.2872 10.1277 25.667 9.63675 26.0005C9.14582 26.3432 8.41407 26.76 8.00651 26.9267C7.48779 27.1305 7.27475 27.2602 7.29328 27.3621C7.30254 27.4454 7.06171 27.7048 6.70973 27.9734C6.37627 28.242 6.10765 28.4921 6.10765 28.5384C6.10765 28.5848 5.94092 28.733 5.73714 28.8626C5.45926 29.0479 5.39442 29.1405 5.47778 29.1961C5.56115 29.2517 5.31106 29.5388 4.5793 30.2428C4.02354 30.7708 3.61598 31.2061 3.68082 31.2154C3.73639 31.2154 3.79197 31.2617 3.79197 31.308C3.79197 31.4377 2.9398 32.6974 2.57855 33.1142C2.42109 33.2902 2.3192 33.4755 2.35625 33.5311C2.3933 33.5866 2.26362 33.8367 2.08763 34.0868C1.70786 34.6148 1.70786 34.6148 1.89311 34.6611C2.00426 34.6796 1.98574 34.7815 1.79122 35.1983C1.66154 35.4762 1.46703 36.0412 1.36514 36.4395C1.26325 36.8471 1.1243 37.2917 1.05947 37.4214C0.966838 37.5974 0.957575 37.6993 1.02241 37.7641C1.08725 37.829 1.05947 38.2087 0.920524 38.959C0.726007 39.9964 0.679694 40.4596 0.614855 42.1454C0.596329 42.6178 0.53149 42.942 0.411075 43.1643C0.309185 43.3403 0.22582 43.5626 0.216558 43.6459C0.207295 43.7386 0.151718 43.8775 0.0776167 43.9609C-0.0242733 44.0906 -0.0242733 44.1276 0.068354 44.1554C0.133193 44.1832 0.179507 44.3592 0.179507 44.6093C0.179507 45.341 0.364761 45.6096 1.23546 46.1747C1.67081 46.4525 2.22657 46.7304 2.4674 46.786C2.71749 46.8416 3.0139 46.9342 3.14358 46.9898C3.27326 47.0361 3.72713 47.0917 4.16248 47.1102C4.59783 47.1195 5.11654 47.175 5.32032 47.2306C6.30217 47.5085 11.0447 47.4251 13.0084 47.1009C13.4715 47.0268 14.1199 46.962 14.4534 46.962C15.3148 46.962 16.0466 46.6193 16.3893 46.0543C16.5189 45.8505 16.6764 45.7393 16.9636 45.6652C18.2603 45.3318 18.4734 45.1743 18.5845 44.5166C18.6494 44.0813 18.2511 43.4607 17.8435 43.3773C17.5101 43.3125 17.436 43.1365 17.6305 42.8401C17.8065 42.5715 17.9361 42.5437 17.9825 42.766C18.0102 42.8957 18.0566 42.8586 18.1862 42.627C18.3067 42.3862 18.3715 42.3399 18.4734 42.4233C18.566 42.5066 18.6123 42.4788 18.6586 42.3306C18.6957 42.2195 18.7698 42.1546 18.8346 42.1732C18.8995 42.201 19.0291 42.0991 19.1218 41.9416C19.2422 41.7378 19.5386 41.5433 20.224 41.2098C20.7335 40.9598 21.2522 40.756 21.3541 40.756C21.493 40.756 21.6875 40.932 21.9469 41.2932C22.725 42.3306 24.2163 44.0072 24.2996 43.9331C24.3274 43.9053 24.4201 44.0072 24.5127 44.1554C24.6053 44.3036 24.7257 44.4148 24.7813 44.3962C24.8369 44.3777 25.0962 44.6741 25.3648 45.0539C25.6335 45.4429 25.8928 45.7301 25.9577 45.7115C26.0225 45.6837 26.1985 45.8505 26.3467 46.082C26.6431 46.5267 26.7635 46.6008 26.7635 46.3321C26.7635 46.221 26.8561 46.2673 27.097 46.5267C27.3008 46.7397 27.4582 46.8416 27.4953 46.786C27.5416 46.7212 27.6805 46.7675 27.8843 46.9064C28.0603 47.0268 28.3104 47.1287 28.4401 47.1287C28.718 47.138 30.2648 47.314 30.5242 47.3788C30.8021 47.4437 31.2745 47.2862 31.858 46.9249C32.1359 46.7582 32.5527 46.5822 32.775 46.5452C33.266 46.4618 34.0811 45.7671 34.0811 45.4337C34.0811 45.128 33.7106 44.6278 33.3123 44.4055C33.127 44.3036 32.9973 44.1832 33.0344 44.1554C33.0622 44.1183 32.9603 44.0628 32.8028 44.035C32.6361 43.9979 32.5064 43.9331 32.5064 43.896C32.5064 43.8497 32.4045 43.7664 32.2748 43.7015C32.1544 43.6459 32.0711 43.5626 32.0989 43.5255C32.1174 43.4885 31.821 43.2754 31.4319 43.0624C30.8299 42.7289 30.7372 42.6456 30.7743 42.4603C30.8021 42.2936 30.7465 42.2195 30.4593 42.0991C30.1629 41.9601 30.1166 41.8953 30.1074 41.6452C30.1074 41.145 29.9036 39.8945 29.7646 39.5611C29.6905 39.3944 29.635 39.1721 29.635 39.0794C29.635 38.8015 29.8295 38.4681 30.0425 38.3662C30.1444 38.3199 30.4501 38.0883 30.7094 37.8475C30.9781 37.6159 31.2282 37.4214 31.2652 37.4214C31.4319 37.4214 32.6917 35.2724 32.6917 35.0038C32.6917 34.9205 32.7658 34.8278 32.8584 34.8093C32.9788 34.7723 33.0807 34.5777 33.1918 34.1702C33.7106 32.3176 34.0255 31.4099 34.359 30.8634C34.9147 29.9464 34.9518 29.7148 34.6739 29.1127C34.4423 28.6403 34.4331 28.5477 34.4794 27.6214C34.5535 26.1487 34.6554 25.7596 34.9981 25.4632C35.1648 25.3335 35.5909 25.102 35.9614 24.963C36.582 24.7129 36.7209 24.6018 38.3141 23.0086C40.2686 21.0542 40.2408 21.119 39.6387 20.1186C39.4442 19.7759 38.9347 18.6736 38.5272 17.6547C38.1196 16.6451 37.6472 15.5706 37.4898 15.265C36.934 14.2275 35.8225 13.3939 33.9514 12.6066L33.5068 12.412L33.5624 11.9767C33.5994 11.7266 33.6457 10.7262 33.6735 9.73512C33.7198 8.1512 33.7106 7.81773 33.5346 6.90999C33.4234 6.34496 33.2752 5.44648 33.2011 4.9185C33.127 4.35348 33.0159 3.8996 32.9232 3.80698C32.8491 3.71435 32.7843 3.52909 32.7843 3.39015C32.7843 3.01038 31.8117 1.1671 31.4597 0.879955C31.1448 0.611336 30.1259 -3.8147e-06 30.0055 -3.8147e-06C29.9684 -3.8147e-06 29.8943 0.0555725 29.8387 0.111149Z" fill="#FAB414"/>
</svg>
