<svg width="60" height="48" viewBox="0 0 60 48" fill="none" xmlns="http://www.w3.org/2000/svg">
<path d="M45.8293 0.0520859C45.759 0.0989609 45.6301 0.345055 45.5598 0.57943C45.384 1.10677 45.5832 1.92709 46.1457 3.04037C46.3332 3.40365 46.4855 3.76693 46.4855 3.82552C46.4855 3.8724 46.3215 3.98959 46.134 4.07162C45.7238 4.23568 45.4309 4.71615 45.4309 5.20834C45.4309 5.7474 45.1144 6.0638 44.0832 6.53255C42.923 7.07162 42.6184 7.41146 42.6184 8.17318C42.6184 8.48959 42.548 8.78255 42.466 8.86459C42.384 8.9349 42.0207 8.98177 41.6691 8.97005C40.8957 8.94662 40.5207 9.16927 40.1105 9.8724C39.9465 10.1419 39.7121 10.3997 39.5949 10.4349C39.466 10.4583 39.009 10.3646 38.5637 10.2122C37.4855 9.82552 36.8762 9.84896 35.9504 10.2826L35.2004 10.6341L34.7082 10.3997C33.7824 9.95443 32.9855 10.0951 32.1652 10.8451L31.8605 11.1263L31.3215 10.763C30.6418 10.2943 30.173 10.0951 29.4934 10.0013C28.7902 9.90755 28.298 10.0599 27.5715 10.6341C27.2316 10.8919 26.8215 11.1029 26.6691 11.1029C26.5051 11.1029 26.0129 10.8685 25.5676 10.5755C24.5246 9.88412 24.3137 9.83724 23.6691 10.1536L23.1535 10.3997L22.7551 10.0951C21.6301 9.23959 20.6691 9.27474 19.509 10.2005C18.8644 10.7161 18.3371 10.7279 16.6027 10.224C14.6223 9.64974 14.2004 9.61459 13.5207 9.90755C13.1457 10.0716 12.9113 10.2826 12.7121 10.6224L12.4426 11.1029H11.6926C11.0012 11.1029 10.9191 11.1263 10.5793 11.5013C10.2512 11.8411 10.1223 11.8997 9.47773 11.9466C8.99726 11.9818 8.63398 12.0755 8.42304 12.2279C8.0246 12.5326 7.57929 13.388 7.57929 13.8802C7.57929 14.0794 7.52069 14.2904 7.4621 14.3255C7.21601 14.4779 6.37226 15.7083 6.07929 16.3529C5.46991 17.7005 5.78632 18.9896 6.93476 19.7747C7.53241 20.1849 7.50898 20.138 7.33319 20.5247C7.15741 20.888 7.32148 21.1341 7.81366 21.2396C8.00116 21.2865 8.18866 21.4154 8.22382 21.5326C8.25898 21.6497 8.10663 22.224 7.86054 22.8451C7.52069 23.6888 7.41523 24.1224 7.40351 24.7552C7.38007 25.2005 7.36835 25.6458 7.35663 25.7279C7.35663 25.7982 6.98163 26.1029 6.53632 26.3841C5.9621 26.7591 5.57538 27.1224 5.20038 27.6497C4.54413 28.5755 3.77069 30.099 3.59491 30.7904C3.23163 32.2786 2.99726 33.0521 2.83319 33.3802C2.72773 33.5794 2.66913 33.8138 2.70429 33.9076C2.73944 34.0013 2.69257 34.3763 2.59882 34.7396C2.50507 35.1146 2.42304 35.8177 2.42304 36.3216C2.42304 37.0951 2.36444 37.3646 2.05976 38.0326C1.81366 38.5716 1.71991 38.9232 1.76679 39.1458C1.81366 39.3568 1.74335 39.6497 1.60273 39.931C1.47382 40.1888 1.36835 40.5169 1.36835 40.6693C1.36835 40.8333 1.23944 41.2435 1.0871 41.5833C0.934757 41.9349 0.770695 42.4036 0.72382 42.6263C0.676945 42.849 0.548039 43.1654 0.430851 43.3294C-0.131649 44.138 -0.143368 45.1693 0.395695 46.0013C0.782414 46.599 1.38007 46.9388 2.22382 47.0326C2.85663 47.1029 2.88007 47.1029 3.09101 46.7747C3.27851 46.4701 3.36054 46.4349 3.79413 46.4701C4.16913 46.4935 4.34491 46.4466 4.53241 46.2591C4.8371 45.9544 4.79023 45.8138 4.11054 44.5951C3.82929 44.0911 3.59491 43.6341 3.59491 43.5755C3.59491 43.224 4.23944 42.0755 4.74335 41.5365C5.49335 40.7279 6.55976 38.724 6.86444 37.5169C6.99335 36.9896 7.23944 35.7474 7.40351 34.7396C7.56757 33.7435 7.74335 32.7943 7.80194 32.6419C7.93085 32.3138 8.17694 32.1029 8.88007 31.6927C9.17304 31.5286 9.66523 31.1771 9.98163 30.9193C10.3801 30.5911 10.5793 30.4857 10.6379 30.5911C10.673 30.6615 10.7434 31.388 10.7785 32.1966C10.8488 33.8138 10.966 34.3294 11.341 34.7279C11.5402 34.9388 11.5754 35.0794 11.5168 35.4076C11.4113 35.9583 11.8332 37.1185 12.5363 38.2669C13.0051 39.0169 13.1457 39.4154 13.3918 40.599C13.4152 40.7396 13.6965 41.1849 14.0246 41.5833C14.716 42.4505 15.1027 43.388 15.1379 44.2669C15.1613 44.8763 15.1965 44.9232 15.8293 45.5208C16.5207 46.1654 16.9191 46.2943 17.1887 45.9661C17.3293 45.8021 17.3644 45.8021 17.5402 45.9661C17.8566 46.2591 18.3254 46.1888 18.5129 45.8138C18.8059 45.2513 18.8293 44.7943 18.6535 43.013C18.4894 41.2435 18.3254 40.5872 17.8449 39.7552C17.6926 39.4974 17.5285 39.0169 17.4816 38.7005C17.4348 38.3724 17.3059 37.7161 17.1887 37.2357C16.8019 35.6536 16.7785 35.0911 17.0715 34.4818C17.2121 34.1888 17.4816 33.7904 17.6691 33.6146C17.8566 33.4271 18.009 33.181 18.009 33.0755C18.009 32.9583 18.091 32.8997 18.2199 32.9232C18.3605 32.9466 18.4309 32.8646 18.4543 32.6419C18.4777 32.4661 18.5832 32.2552 18.7004 32.1732C18.9699 31.9857 19.2629 31.3294 19.3566 30.7318C19.4738 29.9583 19.5441 29.9115 20.1652 30.1458C20.9387 30.4505 21.759 30.3451 22.3449 29.8646C22.966 29.3724 23.6691 29.349 23.9152 29.8294C24.173 30.3216 24.6887 30.8021 25.2629 31.0599C26.1418 31.4466 27.2199 31.1654 28.4855 30.2044C29.2473 29.6302 29.3176 29.6302 30.3371 30.474C31.4269 31.3646 32.2121 31.8451 33.0207 32.0911C34.1691 32.4544 34.9074 32.3607 35.8332 31.7279L36.3488 31.388L36.4074 32.9349C36.4426 33.7904 36.4309 34.5404 36.384 34.6107C36.2902 34.7513 36.3371 35.5599 36.4543 35.6771C36.5832 35.806 36.5363 36.2513 36.3488 36.7083C36.2434 36.9427 36.1144 37.7865 36.0559 38.6185C35.9973 39.4388 35.8684 40.4466 35.7746 40.8685C35.6105 41.5599 35.6105 41.7005 35.7863 42.4505C36.1613 44.056 36.8293 44.9935 37.966 45.5326C38.5051 45.7904 38.9855 45.7904 38.9855 45.5443C38.9855 45.3685 39.5949 45.4271 39.8293 45.638C39.9934 45.7904 40.1223 45.8138 40.3684 45.7201C40.9309 45.5208 40.8488 45.1224 39.9348 43.5521C39.2668 42.4154 39.1262 42.099 39.2199 41.9232C39.2902 41.806 39.3371 41.4661 39.3371 41.1732C39.3371 40.4583 39.5598 39.0404 39.759 38.4896C39.8527 38.2552 39.9582 37.599 39.9934 37.0247C40.0402 36.4622 40.1457 35.8646 40.2277 35.6888C40.3215 35.513 40.3918 35.2552 40.3918 35.1029C40.3918 34.9505 40.5793 34.4466 40.8019 33.9779C41.1184 33.3099 41.2238 32.8997 41.3176 32.0091C41.4699 30.5091 41.6809 30.2747 42.3605 30.849C42.5598 31.013 42.8644 31.1654 43.0519 31.1888C43.4035 31.224 45.2551 32.1146 45.3605 32.2904C45.3957 32.349 45.7004 32.5365 46.0402 32.7005C46.3801 32.8763 46.8371 33.181 47.0363 33.3919L47.4113 33.7786L47.4934 35.4779C47.5285 36.4154 47.634 37.7513 47.7277 38.4427C47.9269 39.931 47.8449 41.8294 47.5637 42.6615C47.3176 43.3763 47.3996 43.5052 48.4074 44.0208C49.0637 44.3607 49.3332 44.431 50.1769 44.4779C51.0207 44.5247 51.2199 44.5013 51.4074 44.3255C51.759 43.9974 51.6887 43.681 51.091 42.9193L50.5285 42.2161L50.5519 41.2786C50.5637 40.763 50.6574 39.6497 50.7629 38.8177C50.9152 37.6576 50.9504 36.9661 50.8801 35.9466C50.8332 35.2083 50.7746 34.388 50.7746 34.1302C50.7629 33.8724 50.6926 33.474 50.6223 33.2513C50.5519 33.0286 50.4582 32.4076 50.4113 31.8802C50.341 31.0013 50.1535 30.1341 49.5793 28.0951C49.4621 27.6732 49.3684 26.9349 49.3684 26.4427C49.3566 25.6107 49.3801 25.5286 49.7316 25.1302C49.9426 24.8958 50.1418 24.5208 50.1769 24.2982C50.2355 24.0404 50.3644 23.8529 50.5519 23.7474C50.9973 23.513 51.1965 23.0208 51.1613 22.2005C51.1496 21.8021 51.1965 21.2513 51.2785 20.9701C51.4074 20.5013 51.4309 20.4779 51.8879 20.4779C52.9426 20.4779 53.2121 19.4935 52.6496 17.7122L52.3566 16.8099L52.6262 16.388C52.7785 16.1536 53.2355 15.6497 53.6457 15.2513C54.6066 14.3372 55.8137 13.8216 56.5285 14.0208C57.7121 14.349 58.3684 14.0911 59.2121 12.9544C59.634 12.3685 59.7394 12.1458 59.6926 11.8646C59.6574 11.6302 59.7043 11.4661 59.8332 11.3841C59.9973 11.2552 59.9855 11.1615 59.7394 10.388C59.5871 9.91927 59.1184 8.98177 58.7082 8.30209C58.2863 7.61068 57.8527 6.79037 57.7355 6.47396C57.0441 4.52865 56.9973 4.45834 56.0715 3.75521C55.5559 3.35677 55.5207 3.29818 55.673 3.07552C55.9543 2.65365 56.0129 2.09115 55.8137 1.79818C55.6027 1.47005 54.2316 0.67318 53.8801 0.67318C53.7394 0.67318 53.2004 0.895836 52.673 1.15365C51.7473 1.6224 51.6769 1.63412 50.9973 1.55209C50.6105 1.50521 50.0363 1.44662 49.7082 1.4349C49.2043 1.42318 48.9816 1.31771 48.1144 0.755211C47.341 0.227867 46.9894 0.0638046 46.5324 0.0169296C46.216 -0.0182266 45.8996 0.00521088 45.8293 0.0520859Z" fill="#FAB414"/>
</svg>
