<svg width="33" height="33" viewBox="0 0 33 33" fill="none" xmlns="http://www.w3.org/2000/svg">
<g clip-path="url(#clip0_47_2650)">
<path d="M16.4999 12.5217C15.7131 12.5217 14.9439 12.755 14.2897 13.1921C13.6354 13.6293 13.1255 14.2506 12.8244 14.9776C12.5233 15.7045 12.4445 16.5044 12.598 17.2761C12.7515 18.0479 13.1304 18.7567 13.6868 19.3131C14.2432 19.8695 14.9521 20.2484 15.7238 20.4019C16.4955 20.5554 17.2954 20.4766 18.0224 20.1755C18.7493 19.8744 19.3706 19.3645 19.8078 18.7103C20.2449 18.056 20.4783 17.2868 20.4783 16.5C20.4783 15.9776 20.3753 15.4602 20.1754 14.9776C19.9755 14.4949 19.6824 14.0563 19.313 13.6869C18.9436 13.3175 18.505 13.0244 18.0224 12.8245C17.5397 12.6246 17.0224 12.5217 16.4999 12.5217ZM32.4293 8.59147C32.4209 7.35266 32.1927 6.12518 31.7555 4.96605C31.4336 4.11786 30.9354 3.3476 30.2938 2.70608C29.6523 2.06456 28.8821 1.56637 28.0339 1.24439C26.8748 0.807192 25.6473 0.579075 24.4085 0.570635C22.3391 0.458343 21.7295 0.458344 16.4999 0.458344C11.2703 0.458344 10.6608 0.458343 8.59138 0.570635C7.35257 0.579075 6.12508 0.807192 4.96596 1.24439C4.11777 1.56637 3.34751 2.06456 2.70599 2.70608C2.06447 3.3476 1.56628 4.11786 1.24429 4.96605C0.8071 6.12518 0.578983 7.35266 0.570544 8.59147C0.458252 10.6608 0.458252 11.2704 0.458252 16.5C0.458252 21.7296 0.458252 22.3392 0.570544 24.4086C0.587811 25.6517 0.815619 26.883 1.24429 28.05C1.56485 28.8943 2.06263 29.6601 2.70409 30.2958C3.34285 30.9412 4.11477 31.4394 4.96596 31.7556C6.12508 32.1928 7.35257 32.4209 8.59138 32.4294C10.6608 32.5417 11.2703 32.5417 16.4999 32.5417C21.7295 32.5417 22.3391 32.5417 24.4085 32.4294C25.6473 32.4209 26.8748 32.1928 28.0339 31.7556C28.8851 31.4394 29.657 30.9412 30.2958 30.2958C30.9372 29.6601 31.435 28.8943 31.7555 28.05C32.1923 26.8852 32.4204 25.6525 32.4293 24.4086C32.5416 22.3392 32.5416 21.7296 32.5416 16.5C32.5416 11.2704 32.5416 10.6608 32.4293 8.59147ZM28.3547 21.4248C28.3032 22.4147 28.092 23.3898 27.7291 24.3123C27.4177 25.0818 26.9547 25.7808 26.3677 26.3678C25.7807 26.9548 25.0817 27.4178 24.3122 27.7292C23.381 28.0718 22.4005 28.2614 21.4087 28.2906C20.1414 28.2906 19.8045 28.2906 16.4999 28.2906C13.1953 28.2906 12.8585 28.2906 11.5912 28.2906C10.5994 28.2614 9.61883 28.0718 8.68763 27.7292C7.89213 27.4336 7.17374 26.9619 6.58617 26.3496C6.00493 25.7741 5.55604 25.0789 5.27075 24.3123C4.92675 23.3821 4.74235 22.4004 4.72534 21.4088C4.72534 20.1415 4.72534 19.8046 4.72534 16.5C4.72534 13.1954 4.72534 12.8586 4.72534 11.5913C4.74235 10.5996 4.92675 9.61795 5.27075 8.68772C5.56637 7.89222 6.03798 7.17383 6.65034 6.58626C7.22837 6.00816 7.92286 5.55974 8.68763 5.27084C9.61883 4.9282 10.5994 4.7386 11.5912 4.70939C12.8585 4.70939 13.1953 4.70939 16.4999 4.70939C19.8045 4.70939 20.1414 4.70939 21.4087 4.70939C22.4005 4.7386 23.381 4.9282 24.3122 5.27084C25.1077 5.56646 25.8261 6.03807 26.4137 6.65043C26.9949 7.22592 27.4438 7.92114 27.7291 8.68772C28.0717 9.61892 28.2613 10.5995 28.2905 11.5913C28.2905 12.8586 28.2905 13.1954 28.2905 16.5C28.2905 19.8046 28.4028 20.1415 28.3547 21.4088V21.4248ZM25.788 9.4898C25.597 8.97163 25.2959 8.50106 24.9054 8.11056C24.5149 7.72006 24.0443 7.41892 23.5262 7.22793C22.8147 6.9813 22.0653 6.86184 21.3124 6.87501C20.0612 6.87501 19.7083 6.87501 16.4999 6.87501C13.2916 6.87501 12.9387 6.87501 11.6874 6.87501C10.9307 6.88241 10.1812 7.02361 9.47367 7.29209C8.96343 7.47442 8.49784 7.76326 8.10785 8.13942C7.71787 8.51557 7.41241 8.97043 7.21179 9.47376C6.97883 10.1882 6.86502 10.9361 6.87492 11.6875C6.87492 12.9388 6.87492 13.2917 6.87492 16.5C6.87492 19.7083 6.87492 20.0613 6.87492 21.3125C6.89082 22.0684 7.03176 22.8164 7.292 23.5263C7.483 24.0444 7.78414 24.515 8.17464 24.9055C8.56514 25.296 9.03571 25.5971 9.55388 25.7881C10.2383 26.0399 10.9586 26.1806 11.6874 26.2052C12.9387 26.2052 13.2916 26.2052 16.4999 26.2052C19.7083 26.2052 20.0612 26.2052 21.3124 26.2052C22.0692 26.1978 22.8186 26.0566 23.5262 25.7881C24.0443 25.5971 24.5149 25.296 24.9054 24.9055C25.2959 24.515 25.597 24.0444 25.788 23.5263C26.0565 22.8187 26.1977 22.0692 26.2051 21.3125C26.2051 20.0613 26.2051 19.7083 26.2051 16.5C26.2051 13.2917 26.2051 12.9388 26.2051 11.6875C26.2056 10.93 26.0641 10.1791 25.788 9.47376V9.4898ZM16.4999 22.6279C15.6959 22.6279 14.8999 22.4693 14.1573 22.1612C13.4147 21.853 12.7402 21.4014 12.1725 20.8321C11.6047 20.2629 11.1549 19.5872 10.8487 18.8438C10.5425 18.1005 10.3859 17.304 10.388 16.5C10.388 15.2873 10.7479 14.1019 11.4219 13.0939C12.096 12.0858 13.054 11.3004 14.1746 10.837C15.2953 10.3737 16.5282 10.2533 17.7174 10.491C18.9065 10.7288 19.9984 11.314 20.8547 12.1726C21.7111 13.0312 22.2934 14.1246 22.5281 15.3144C22.7627 16.5041 22.6391 17.7368 22.1728 18.8562C21.7065 19.9756 20.9186 20.9316 19.9088 21.603C18.8989 22.2744 17.7126 22.6311 16.4999 22.6279ZM22.9166 11.5752C22.562 11.5377 22.2338 11.3702 21.9953 11.1052C21.7568 10.8401 21.6248 10.4961 21.6248 10.1395C21.6248 9.7829 21.7568 9.43892 21.9953 9.17383C22.2338 8.90874 22.562 8.7413 22.9166 8.70376C23.2712 8.7413 23.5994 8.90874 23.8379 9.17383C24.0764 9.43892 24.2084 9.7829 24.2084 10.1395C24.2084 10.4961 24.0764 10.8401 23.8379 11.1052C23.5994 11.3702 23.2712 11.5377 22.9166 11.5752Z" fill="#FAB414"/>
</g>
<defs>
<clipPath id="clip0_47_2650">
<rect width="33" height="33" fill="white"/>
</clipPath>
</defs>
</svg>
