<svg width="23" height="23" viewBox="0 0 23 23" fill="none" xmlns="http://www.w3.org/2000/svg">
<g clip-path="url(#clip0_47_4436)">
<path d="M5.25281 1.90912C5.16795 1.79996 5.06084 1.7101 4.93858 1.64552C4.81632 1.58093 4.68172 1.5431 4.54372 1.53454C4.40572 1.52597 4.26748 1.54687 4.13817 1.59584C4.00887 1.64481 3.89146 1.72073 3.79375 1.81856L2.30738 3.30637C1.61306 4.00212 1.35719 4.98681 1.6605 5.85074C2.91938 9.42665 4.96718 12.6733 7.652 15.3497C10.3285 18.0345 13.5751 20.0823 17.151 21.3412C18.0149 21.6446 18.9996 21.3887 19.6954 20.6944L21.1818 19.208C21.2796 19.1103 21.3555 18.9929 21.4045 18.8636C21.4534 18.7343 21.4743 18.596 21.4658 18.458C21.4572 18.32 21.4194 18.1854 21.3548 18.0632C21.2902 17.9409 21.2004 17.8338 21.0912 17.7489L17.7749 15.1701C17.6583 15.0796 17.5226 15.0168 17.3782 14.9864C17.2337 14.9561 17.0843 14.9589 16.9411 14.9947L13.793 15.781C13.3728 15.886 12.9325 15.8804 12.5151 15.7648C12.0977 15.6492 11.7173 15.4274 11.4111 15.1212L7.88056 11.5892C7.57404 11.2831 7.35203 10.9028 7.23615 10.4854C7.12027 10.068 7.11447 9.62764 7.21931 9.20731L8.00706 6.05918C8.04287 5.916 8.04569 5.76656 8.01531 5.62213C7.98493 5.4777 7.92214 5.34205 7.83169 5.22543L5.25281 1.90912ZM2.70844 0.734681C2.95999 0.483046 3.2622 0.287806 3.595 0.161926C3.9278 0.036045 4.28357 -0.0175958 4.63869 0.00456512C4.99381 0.026726 5.34015 0.124182 5.65471 0.29046C5.96928 0.456739 6.24487 0.688037 6.46319 0.968994L9.04206 4.28387C9.515 4.89193 9.68175 5.68399 9.49488 6.43149L8.70856 9.57962C8.66791 9.74267 8.67011 9.91347 8.71494 10.0754C8.75977 10.2374 8.84572 10.385 8.96444 10.5039L12.4964 14.0359C12.6155 14.1548 12.7633 14.2409 12.9255 14.2858C13.0878 14.3306 13.2589 14.3327 13.4221 14.2917L16.5688 13.5054C16.9377 13.4132 17.3227 13.406 17.6948 13.4845C18.0668 13.5629 18.4162 13.7249 18.7164 13.9582L22.0313 16.5371C23.223 17.4643 23.3323 19.2252 22.2656 20.2904L20.7793 21.7768C19.7155 22.8406 18.1256 23.3077 16.6436 22.7859C12.8503 21.4513 9.40614 19.2796 6.56669 16.4322C3.71942 13.5931 1.54781 10.1495 0.212939 6.35674C-0.307436 4.87612 0.159751 3.28481 1.2235 2.22106L2.70988 0.734681H2.70844Z" fill="#23280B"/>
</g>
<defs>
<clipPath id="clip0_47_4436">
<rect width="23" height="23" fill="white"/>
</clipPath>
</defs>
</svg>
