<svg width="24" height="24" viewBox="0 0 24 24" fill="none" xmlns="http://www.w3.org/2000/svg">
<g clip-path="url(#clip0_1254_2209)">
<path d="M12 0C13.1016 0 14.1641 0.142578 15.1875 0.427734C16.2109 0.712891 17.168 1.11523 18.0586 1.63477C18.9492 2.1543 19.7598 2.7793 20.4902 3.50977C21.2207 4.24023 21.8457 5.05078 22.3652 5.94141C22.8848 6.83203 23.2871 7.78906 23.5723 8.8125C23.8574 9.83594 24 10.8984 24 12C24 13.1016 23.8574 14.1641 23.5723 15.1875C23.2871 16.2109 22.8848 17.168 22.3652 18.0586C21.8457 18.9492 21.2207 19.7598 20.4902 20.4902C19.7598 21.2207 18.9492 21.8457 18.0586 22.3652C17.168 22.8848 16.2109 23.2871 15.1875 23.5723C14.1641 23.8574 13.1016 24 12 24C10.6563 24 9.36523 23.7852 8.12695 23.3555C6.88867 22.9258 5.75977 22.3223 4.74023 21.5449C3.7207 20.7676 2.83789 19.8398 2.0918 18.7617C1.3457 17.6836 0.796875 16.4961 0.445312 15.1992L1.88672 14.8008C2.19922 15.9336 2.68164 16.9707 3.33398 17.9121C3.98633 18.8535 4.75781 19.6641 5.64844 20.3438C6.53906 21.0234 7.52734 21.5527 8.61328 21.9316C9.69922 22.3105 10.8281 22.5 12 22.5C12.9609 22.5 13.8887 22.375 14.7832 22.125C15.6777 21.875 16.5137 21.5215 17.291 21.0645C18.0684 20.6074 18.7773 20.0586 19.418 19.418C20.0586 18.7773 20.6074 18.0684 21.0645 17.291C21.5215 16.5137 21.875 15.6797 22.125 14.7891C22.375 13.8984 22.5 12.9687 22.5 12C22.5 11.0391 22.375 10.1113 22.125 9.2168C21.875 8.32227 21.5215 7.48633 21.0645 6.70898C20.6074 5.93164 20.0586 5.22266 19.418 4.58203C18.7773 3.94141 18.0684 3.39258 17.291 2.93555C16.5137 2.47852 15.6777 2.125 14.7832 1.875C13.8887 1.625 12.9609 1.5 12 1.5C10.9922 1.5 10.0117 1.64062 9.05859 1.92188C8.10547 2.20312 7.2168 2.60547 6.39258 3.12891C5.56836 3.65234 4.82422 4.2832 4.16016 5.02148C3.49609 5.75977 2.94922 6.58594 2.51953 7.5H6V9H0V3H1.5V6.21094C2.02344 5.25 2.66016 4.38672 3.41016 3.62109C4.16016 2.85547 4.99023 2.20508 5.90039 1.66992C6.81055 1.13477 7.78125 0.722656 8.8125 0.433594C9.84375 0.144531 10.9062 0 12 0Z" fill="black"/>
</g>
<defs>
<clipPath id="clip0_1254_2209">
<rect width="24" height="24" fill="white"/>
</clipPath>
</defs>
</svg>
